<svg xmlns="http://www.w3.org/2000/svg" viewBox="0 0 280 56" fill="none" role="img" aria-label="سوقنا Sooqna">
  <defs>
    <linearGradient id="sooqnaHorizontalBg" x1="6" y1="8" x2="42" y2="48" gradientUnits="userSpaceOnUse">
      <stop offset="0%" stop-color="#0B1628"/>
      <stop offset="100%" stop-color="#1A2D4A"/>
    </linearGradient>
  </defs>
  <g transform="translate(0 4)">
    <rect width="48" height="48" rx="13" fill="url(#sooqnaHorizontalBg)"/>
    <rect x="0.5" y="0.5" width="47" height="47" rx="12.5" fill="none" stroke="rgba(255,255,255,0.12)" stroke-width="1"/>
    <path d="M29.75 14.25c0-3.9-3.15-7.05-7.55-7.05-4.15 0-7.45 2.95-7.45 6.65 0 2.25 1.2 4.2 3.15 5.35-3.25 1.05-5.35 3.95-5.35 7.35 0 4.35 3.55 7.85 8.05 7.85s8.05-3.5 8.05-7.85c0-2.95-1.65-5.45-4.1-6.75" stroke="#FAF9F7" stroke-width="3" stroke-linecap="round" stroke-linejoin="round"/>
    <path d="M17.25 22.75c3.05-2.35 6.7-2.35 9.75 0" stroke="#C9A962" stroke-width="2.5" stroke-linecap="round" opacity="0.92"/>
  </g>
  <text x="64" y="28" font-family="IBM Plex Sans Arabic, Tahoma, sans-serif" font-size="22" font-weight="800" fill="#0B1628">سوقنا</text>
  <text x="64" y="46" font-family="Inter, system-ui, sans-serif" font-size="12" font-weight="700" fill="#C9A962" letter-spacing="0.04em">Sooqna</text>
</svg>
