<?xml version="1.0" encoding="UTF-8"?>
<svg xmlns="http://www.w3.org/2000/svg" width="420" height="360" viewBox="0 0 420 360" fill="none">
  <g transform="translate(120,24) scale(1.05)">
  <g>
    <path fill="#2E7DAA" d="M18 86 C34 70 52 52 68 36 L52 54 C40 66 28 78 18 86 Z"/>
    <path fill="#2E7DAA" d="M22 68 C40 50 60 32 78 18 L60 38 C46 52 34 62 22 68 Z"/>
    <path fill="#2E7DAA" d="M26 48 C46 32 68 16 90 4 L70 24 C54 36 40 44 26 48 Z"/>
    <path fill="#DD9B30" d="M28 46 C50 28 74 12 96 0 L88 6 C68 18 48 32 32 44 Z"/>
    <path stroke="#7C7B80" stroke-width="4.5" stroke-linecap="round" d="M96 8 V78"/>
    <path fill="none" stroke="#7C7B80" stroke-width="5" stroke-linejoin="round" stroke-linecap="round"
      d="M96 8 C118 0 146 6 160 20 V74 C138 58 116 54 96 66"/>
    <path fill="none" stroke="#7C7B80" stroke-width="4" stroke-linejoin="round" stroke-linecap="round"
      d="M96 8 C78 18 66 38 64 56 V78"/>
    <path stroke="#7C7B80" stroke-width="4" stroke-linecap="round" d="M96 66 V80"/>
  </g></g>
  <text x="210" y="240" text-anchor="middle" font-family="Arial Black, Helvetica Neue, Arial, sans-serif" font-size="34" font-weight="800" letter-spacing="1.2">
    <tspan fill="#2E7DAA">AVIATOR</tspan><tspan dx="12" fill="#DD9B30">PASS</tspan>
  </text>
  <text x="210" y="275" text-anchor="middle" font-family="Helvetica Neue, Helvetica, Arial, sans-serif" font-size="11" font-weight="600" letter-spacing="2.4" fill="#7C7B80">UNLOCK YOUR PILOT LICENSE</text>
</svg>